# Blender v2.78 (sub 0) OBJ File: 'arrow.blend'
# www.blender.org
mtllib low-poly-arrow-rotated-b.mtl
o Head
v 1.635755 2.777665 108.096169
v -0.000018 -0.000000 119.409187
v 1.582900 -2.687912 108.461723
v 2.275038 -2.253326 96.978813
v 2.275038 2.230975 96.978813
v -2.275068 2.230975 96.978813
v -2.275068 -2.253326 96.978813
v -1.582932 -2.687912 108.461723
v -1.635789 2.777665 108.096169
v 1.621611 5.507289 96.978813
v -1.621641 5.507289 96.978813
v -1.621640 -5.507289 96.978813
v 1.621612 -5.507289 96.978813
v 3.196755 2.230975 94.678810
v 3.196756 -2.253326 94.678810
v -3.196784 -2.253326 94.678810
v -3.196784 2.230975 94.678810
vt 0.5000 1.0000
vt 0.9755 0.6545
vt 0.7939 0.0955
vt 0.2061 0.0955
vt 0.0245 0.6545
vt 0.5000 1.0000
vt 0.9755 0.6545
vt 0.7939 0.0955
vt 0.2061 0.0955
vt 0.0245 0.6545
vt 0.0000 0.0000
vt 1.0000 0.0000
vt 1.0000 1.0000
vt 0.0000 1.0000
vt 0.0000 0.0000
vt 1.0000 0.0000
vt 1.0000 1.0000
vt 1.0000 0.0000
vt 1.0000 1.0000
vt 0.0000 1.0000
vt 0.0000 0.0000
vt 1.0000 0.0000
vt 0.0000 0.0000
vt 1.0000 0.0000
vt 1.0000 1.0000
vt 0.0000 0.0000
vt 1.0000 0.0000
vt 1.0000 1.0000
vt 0.0000 1.0000
vt 0.0000 0.0000
vt 1.0000 1.0000
vt 1.0000 1.0000
vt 0.0000 1.0000
vt 0.0000 0.0000
vt 1.0000 1.0000
vt 0.0000 0.0000
vt 1.0000 0.0000
vt 0.0000 0.0000
vt 1.0000 0.0000
vt 1.0000 1.0000
vt 0.0000 1.0000
vt 1.0000 0.0000
vt 1.0000 1.0000
vt 0.0000 1.0000
vt 1.0000 1.0000
vt 0.0000 1.0000
vt 1.0000 0.0000
vt 1.0000 1.0000
vt 0.0000 1.0000
vt 0.0000 0.0000
vt 1.0000 0.0000
vn 0.9961 -0.0020 0.0886
vn -0.9961 -0.0020 0.0886
vn 0.0000 0.0000 -1.0000
vn 0.0000 -0.9712 0.2384
vn 0.0000 0.9712 0.2384
vn 0.9796 0.1954 0.0467
vn 0.9791 -0.1966 0.0516
vn -0.9791 -0.1966 0.0516
vn -0.9796 0.1954 0.0467
vn -0.0000 1.0000 0.0000
vn 0.9282 0.0000 0.3720
vn 0.0000 -1.0000 0.0000
vn -0.9282 -0.0000 0.3720
usemtl Mat.001
s 1
f 1/1/1 2/2/1 3/3/1 4/4/1 5/5/1
f 6/6/2 7/7/2 8/8/2 2/9/2 9/10/2
f 10/11/3 5/12/3 6/13/3 11/14/3
f 8/15/4 3/16/4 2/17/4
f 8/15/4 12/18/4 13/19/4 3/20/4
f 1/21/5 9/22/5 2/17/5
f 5/23/6 10/24/6 1/25/6
f 4/26/3 13/27/3 12/28/3 7/29/3
f 3/30/7 13/27/7 4/31/7
f 1/21/5 10/24/5 11/32/5 9/33/5
f 7/34/8 12/18/8 8/35/8
f 9/36/9 11/37/9 6/13/9
f 14/38/3 15/39/3 16/40/3 17/41/3
f 5/23/10 14/42/10 17/43/10 6/44/10
f 4/26/11 15/39/11 14/45/11 5/46/11
f 7/34/12 16/47/12 15/48/12 4/49/12
f 6/50/13 17/51/13 16/40/13 7/29/13
o Body
v 2.101381 -0.682778 -29.927364
v 0.000005 -2.209517 -29.927364
v 0.000005 0.000000 -29.927364
v 2.101381 -0.682778 -29.927364
v 2.101362 -0.682778 96.701981
v -0.000014 -2.209517 96.701981
v 0.000005 -2.209517 -29.927364
v -2.101372 -0.682778 -29.927364
v -2.101391 -0.682778 96.701981
v -1.298737 1.787537 96.701981
v -1.298718 1.787537 -29.927364
v 1.298726 1.787537 -29.927364
v 1.298707 1.787537 96.701981
v 1.298707 1.787537 96.831642
v 2.101362 -0.682778 96.831642
v -2.101372 -0.682778 -29.927364
v -1.298718 1.787537 -29.927364
v -1.298737 1.787537 96.831642
v -2.101391 -0.682778 96.831642
v -0.000014 -2.209517 96.831642
v 1.298726 1.787537 -29.927364
vt 0.3455 0.9755
vt 0.0000 0.5000
vt 0.5000 0.5000
vt 0.2000 0.0000
vt 0.2000 0.9779
vt 0.0000 0.9779
vt 0.0000 0.0000
vt 0.8000 0.0000
vt 0.8000 0.9779
vt 0.6000 0.9779
vt 0.6000 0.0000
vt 0.9045 0.7939
vt 0.4000 0.9779
vt 0.4000 0.9825
vt 0.2000 0.9825
vt 0.3455 0.0245
vt 0.9045 0.2061
vt 0.6000 0.9825
vt 0.8000 0.9825
vt 1.0000 0.9779
vt 1.0000 0.9825
vt 0.0000 0.9825
vt 0.4000 0.0000
vt 1.0000 0.0000
vn 0.4253 0.1382 -0.8944
vn -0.2628 -0.3618 -0.8944
vn 0.0000 0.0000 -1.0000
vn 0.9511 0.3090 0.0000
vn 0.9511 0.3090 0.0001
vn -0.5878 -0.8090 0.0000
vn -0.5878 -0.8090 -0.0003
vn -0.5878 -0.8090 0.0001
vn -0.0000 1.0000 0.0000
vn 0.0000 1.0000 0.0002
vn 0.5878 -0.8090 0.0000
vn -0.2629 -0.3618 -0.8944
vn -0.0000 0.4472 -0.8944
vn -0.9511 0.3090 0.0002
vn -0.9511 0.3090 -0.0000
vn 0.5878 -0.8090 0.0002
usemtl Mat.002
s 1
f 18/52/14 19/53/15 20/54/16
f 21/55/17 22/56/18 23/57/19 24/58/20
f 25/59/19 26/60/21 27/61/22 28/62/22
f 29/63/16 18/52/14 20/54/16
f 30/64/22 31/65/23 32/66/24 22/56/18
f 19/53/15 33/67/25 20/54/16
f 34/68/26 29/63/16 20/54/16
f 27/61/22 35/69/27 31/65/23 30/64/22
f 36/70/28 26/60/21 23/71/19 37/72/29
f 33/67/25 34/68/26 20/54/16
f 22/56/18 32/66/24 37/73/29 23/57/19
f 26/60/21 36/70/28 35/69/27 27/61/22
f 22/56/18 21/55/17 38/74/22 30/64/22
f 30/64/22 38/74/22 28/62/22 27/61/22
f 26/60/21 25/59/19 24/75/20 23/71/19
o Feather
v -0.238779 1.933973 -17.169132
v 0.000002 -3.630793 -10.104571
v 0.000005 -3.630793 -32.965969
v -0.147576 -0.191578 8.390688
v 0.147576 -7.070007 -3.339828
v 0.238784 -9.195559 -17.169132
v 1.794263 -0.760196 -17.169132
v -3.144358 1.815396 -10.104571
v -3.144354 1.815396 -32.965969
v -0.092125 0.223593 8.390688
v -6.196592 3.407200 -3.339829
v -8.082976 4.390988 -17.169134
v -1.555476 -1.173777 -17.169132
v 3.144361 1.815396 -10.104571
v 3.144364 1.815396 -32.965969
v 0.239698 -0.032014 8.390688
v 6.049018 3.662807 -3.339827
v 7.844199 4.804571 -17.169130
vt 0.6545 0.9755
vt 0.5000 0.5000
vt 1.0000 0.5000
vt 0.0955 0.7939
vt 0.0955 0.2061
vt 0.6545 0.0245
vt 0.6545 0.9755
vt 0.5000 0.5000
vt 1.0000 0.5000
vt 0.0955 0.7939
vt 0.0955 0.2061
vt 0.6545 0.0245
vt 0.6545 0.9755
vt 0.5000 0.5000
vt 1.0000 0.5000
vt 0.0955 0.7939
vt 0.0955 0.2061
vt 0.6545 0.0245
vn 0.9991 0.0429 0.0000
vn -0.4624 -0.8867 -0.0000
vn -0.5367 0.8438 -0.0000
usemtl Mat
s 1
f 39/76/30 40/77/30 41/78/30
f 42/79/30 40/77/30 39/76/30
f 43/80/30 40/77/30 42/79/30
f 44/81/30 40/77/30 43/80/30
f 41/78/30 40/77/30 44/81/30
f 45/82/31 46/83/31 47/84/31
f 48/85/31 46/83/31 45/82/31
f 49/86/31 46/83/31 48/85/31
f 50/87/31 46/83/31 49/86/31
f 47/84/31 46/83/31 50/87/31
f 51/88/32 52/89/32 53/90/32
f 54/91/32 52/89/32 51/88/32
f 55/92/32 52/89/32 54/91/32
f 56/93/32 52/89/32 55/92/32
f 53/90/32 52/89/32 56/93/32
